<?xml version="1.0" encoding="UTF-8"?>
<svg id="Layer_2" data-name="Layer 2" xmlns="http://www.w3.org/2000/svg" xmlns:xlink="http://www.w3.org/1999/xlink" viewBox="0 0 1522.48 1343.49">
  <defs>
    <linearGradient id="linear-gradient" x1="-21.88" y1="457.47" x2="477.02" y2="148.1" gradientUnits="userSpaceOnUse">
      <stop offset="0" stop-color="#2d383e"/>
      <stop offset="1" stop-color="#5e676b"/>
    </linearGradient>
  </defs>
  <rect width="460.59" height="602.18" style="fill: url(#linear-gradient);"/>
  <g>
    <path d="M300.96,189.53c-5.97-19.27-25.45-32.36-46.74-30.61-2.03-8.38-4.06-16.77-6.1-25.15,8.53-7.5,29.28-27.95,31.88-58.55,1.71-20.06-3.83-50.92-19.56-55.13-7.94-2.12-15.7,3.3-17.53,4.57-27.97,19.54-12.17,82.07-11.3,85.36-4.35,3.34-10.33,8.24-16.89,14.73-2.66,2.63-15.08,14.91-21.34,25.4-9.32,15.63-16.25,46.25,1.02,71.13,14.31,20.62,40.71,30.76,66.94,25.78,1.69,3.41,3.87,8.57,5.21,15.11,1.48,7.24,5.88,28.81-6.35,38.61-10.47,8.4-26.62,2.94-28.83,2.16,7.87-.54,14.52-5.36,16.77-12.07,3.01-9-3.03-18.07-10.16-21.97-7.69-4.21-17.2-2.7-23.18,2.51-5.8,5.06-6.56,12.09-6.8,14.26-.84,7.77,2.43,13.53,3.46,15.27,4.67,7.94,12.27,10.95,15.34,12.16,16.34,6.47,41.86,1.36,51.31-15.11,7.77-13.54,2.6-31.15-2.29-47.76-.76-2.6-1.5-4.73-2.03-6.22,22.27-8.78,33.82-33.06,27.18-54.49Zm-61.48-111.01c.5-7,1.11-14.41,6.1-21.47,2.88-4.08,9.45-11.19,14.48-9.53,3.6,1.19,4.87,6.37,5.33,8.26,4.21,17.16-17.9,39.72-23.75,45.47-2.49-9.52-2.53-17.48-2.16-22.74Zm-36.58,134.89c-6.72-14.73-.48-31.48,1.4-35.95,4.7-11.16,12.96-18.79,20.96-26.17,5.14-4.75,9.86-8.27,13.34-10.67,1.27,7.07,2.54,14.14,3.81,21.21-22.74,10.66-31.63,33.85-24.64,49.03,6.38,13.87,24.19,17.05,26.29,17.4,1.58,.25,3.1-.52,3.68-1.78,.74-1.59-.08-3.77-2.03-4.57-8.32-2.72-13.81-10.7-13.34-19.31,.49-8.94,7.27-16.47,16.26-17.91l11.81,51.44c-26.08,4.62-49.68-5.5-57.54-22.74Zm66.05,23.63c-4.4-18.12-8.81-36.24-13.21-54.36,14.92-2.34,29.09,7.48,32.14,21.85,2.91,13.77-5.2,27.96-18.93,32.52Z" style="fill: #fff;"/>
    <g>
      <g>
        <path d="M177.57,461.62v-54.75H107.16v54.75h-4.69v-109.52h4.69v50.07h70.4v-50.07h4.69v109.52h-4.69Z" style="fill: #fff;"/>
        <path d="M214.54,436.59l-9.85,25.03h-5.01l43.49-109.52h6.26l43.49,109.52h-5.01l-10.01-25.03h-63.37Zm61.49-4.69l-29.73-75.1-29.88,75.1h59.61Z" style="fill: #fff;"/>
        <path d="M315.2,424.08v37.54h-4.69v-109.52h34.42c25.35,0,42.24,14.4,42.24,35.99s-16.9,35.99-42.24,35.99h-29.73Zm0-67.28v62.58h29.73c22.53,0,37.55-12.51,37.55-31.29s-15.02-31.29-37.55-31.29h-29.73Z" style="fill: #fff;"/>
      </g>
      <g>
        <path d="M102.09,506.36h5.15c0,6.45,5.52,11.1,13.4,11.1,7.2,0,11.6-3.78,11.6-9.06,0-5.83-6.2-6.7-13.03-7.57-8.06-1.12-16.44-2.42-16.44-12.16,0-7.75,6.64-13.46,16.5-13.46s17.25,6.2,17.25,14.83h-5.03c.06-5.96-5.09-10.24-12.22-10.24s-11.35,3.54-11.35,8.44c0,5.83,5.89,6.76,12.72,7.69,8.06,1.12,16.75,2.42,16.75,11.84,0,8.31-6.58,14.27-16.87,14.27s-18.42-6.58-18.42-15.69Z" style="fill: #fff;"/>
        <path d="M157.51,481.37h-14.64v-4.59h34.43v4.59h-14.64v39.14h-5.15v-39.14Z" style="fill: #fff;"/>
        <path d="M189.54,515.92h25.43v4.59h-30.46v-43.73h29.84v4.59h-24.81v14.32h22.33v4.34h-22.33v15.88Z" style="fill: #fff;"/>
        <path d="M240.24,516.6l14.27-39.82h5.46l-15.88,43.73h-7.69l-15.94-43.73h5.46l14.33,39.82Z" style="fill: #fff;"/>
        <path d="M272.71,515.92h25.43v4.59h-30.46v-43.73h29.84v4.59h-24.81v14.32h22.33v4.34h-22.33v15.88Z" style="fill: #fff;"/>
        <path d="M314.48,476.78l22.64,37.4v-37.4h5.21v43.73h-6.76l-22.7-37.41v37.41h-5.15v-43.73h6.76Z" style="fill: #fff;"/>
        <path d="M352.34,506.36h5.15c0,6.45,5.52,11.1,13.4,11.1,7.2,0,11.6-3.78,11.6-9.06,0-5.83-6.2-6.7-13.03-7.57-8.06-1.12-16.44-2.42-16.44-12.16,0-7.75,6.64-13.46,16.5-13.46s17.24,6.2,17.24,14.83h-5.03c.06-5.96-5.09-10.24-12.22-10.24s-11.35,3.54-11.35,8.44c0,5.83,5.89,6.76,12.72,7.69,8.06,1.12,16.75,2.42,16.75,11.84,0,8.31-6.58,14.27-16.87,14.27s-18.42-6.58-18.42-15.69Z" style="fill: #fff;"/>
      </g>
      <g>
        <path d="M121.18,568.84l9.64-34.08h9.32l-11.45,37.92h-15.07l-11.45-37.92h9.32l9.69,34.08Z" style="fill: #fff;"/>
        <path d="M163.06,533.43c12.41,0,20.98,8.31,20.98,20.29s-8.57,20.29-20.98,20.29-20.98-8.26-20.98-20.29,8.52-20.29,20.98-20.29Zm0,32.91c7.08,0,12.04-5.22,12.04-12.62s-4.95-12.62-12.04-12.62-12.04,5.22-12.04,12.62,4.95,12.57,12.04,12.62Z" style="fill: #fff;"/>
        <path d="M228.27,559.63c-1.28,8.36-9.16,14.38-18.85,14.38-11.72,0-20.24-8.52-20.24-20.29s8.52-20.29,20.24-20.29c9.59,0,17.47,6.17,18.85,14.75l-8.42,.96c-1.06-4.69-5.32-8.04-10.22-8.04-6.76,0-11.5,5.22-11.5,12.62s4.8,12.62,11.5,12.62c4.8,0,9.11-3.3,10.28-7.83l8.36,1.12Z" style="fill: #fff;"/>
        <path d="M241.61,566.39l-1.97,6.28h-9.43l11.77-37.92h14.86l11.77,37.92h-9.37l-1.97-6.28h-15.66Zm14.17-6.39l-6.34-20.82-6.34,20.82h12.67Z" style="fill: #fff;"/>
        <path d="M298.72,572.68h-24.82v-37.92h8.95v30.25h15.87v7.67Z" style="fill: #fff;"/>
        <path d="M313.91,534.76v37.92h-8.95v-37.92h8.95Z" style="fill: #fff;"/>
        <path d="M321,560.21h8.04c0,4.1,3.67,7.03,8.79,7.03,4.37,0,7.08-2.18,7.08-5.22,0-3.57-4.1-4.1-8.79-4.69-7.51-.96-14.75-2.56-14.75-11.4,0-7.4,6.34-12.51,15.5-12.51s15.87,5.54,15.87,13.15h-7.77c.05-3.72-3.3-6.39-7.88-6.39-4.21,0-6.98,1.97-6.98,4.74,0,3.57,3.78,4.1,8.58,4.74,7.35,.85,14.96,2.45,14.96,11.18,0,7.77-6.44,13.15-16.08,13.15s-16.56-5.81-16.56-13.79Z" style="fill: #fff;"/>
        <path d="M367.62,542.21h-11.4v-7.45h31.74v7.45h-11.4v30.46h-8.95v-30.46Z" style="fill: #fff;"/>
      </g>
    </g>
  </g>
</svg>